P3
40 22
255
0 66 0
0 84 0
0 62 0
0 96 0
0 88 0
128 175 0
0 93 0
130 176 0
113 169 0
0 80 0
0 124 0
0 55 0
178 200 0
0 127 0
92 161 0
0 64 0
0 123 0
179 200 0
0 49 0
0 67 0
131 176 0
0 105 0
133 177 0
0 142 0
0 73 0
0 44 0
102 165 0
0 113 0
0 65 0
0 51 0
0 98 0
110 168 0
0 125 0
71 154 0
0 74 0
147 184 0
0 34 0
0 127 0
116 170 0
24 146 0
0 69 0
0 70 0
0 120 0
0 17 0
122 173 0
0 47 0
0 40 0
0 61 0
0 22 0
0 74 0
0 83 0
46 149 0
0 114 0
0 72 0
0 112 0
0 98 0
0 80 0
0 116 0
123 173 0
117 170 0
0 88 0
152 186 0
0 95 0
0 109 0
0 109 0
0 68 0
0 34 0
0 128 0
191 207 0
0 78 0
0 56 0
0 111 0
0 52 0
0 36 0
0 69 0
0 110 0
0 135 0
0 139 0
0 71 0
0 115 0
0 125 0
0 125 0
0 22 0
0 46 0
0 65 0
0 93 0
0 69 0
0 92 0
0 41 0
0 70 0
0 53 0
0 25 0
165 193 0
157 189 0
196 209 0
179 200 0
54 150 0
0 82 0
56 151 0
157 189 0
0 93 0
0 62 0
0 91 0
0 127 0
0 42 0
0 56 0
161 191 0
0 64 0
107 166 0
0 93 0
0 64 0
0 65 0
0 80 0
0 56 0
0 101 0
0 126 0
0 41 0
0 39 0
0 94 0
0 53 0
0 123 0
0 27 0
0 97 0
81 157 0
0 57 0
0 68 0
0 114 0
0 62 0
0 100 0
0 61 0
0 107 0
0 121 0
0 64 0
0 32 0
0 68 0
0 118 0
0 94 0
0 63 0
0 144 0
0 55 0
0 138 0
0 57 0
0 95 0
0 47 0
0 43 0
0 106 0
188 205 0
0 93 0
0 44 0
0 67 0
0 99 0
32 147 0
86 159 0
0 97 0
0 121 0
177 199 0
0 103 0
0 45 0
0 60 0
0 50 0
160 190 0
0 67 0
0 71 0
0 79 0
70 154 0
0 76 0
0 92 0
0 57 0
112 168 0
89 160 0
125 174 0
107 167 0
0 78 0
0 46 0
190 206 0
0 119 0
0 138 0
0 56 0
0 103 0
0 86 0
0 83 0
0 70 0
72 155 0
188 205 0
0 118 0
168 195 0
0 82 0
155 188 0
0 6 0
0 50 0
0 54 0
0 86 0
138 180 0
0 29 0
0 74 0
126 174 0
0 72 0
0 74 0
0 111 0
0 68 0
0 89 0
0 119 0
169 195 0
0 15 0
0 97 0
0 14 0
139 180 0
0 127 0
0 32 0
0 87 0
0 100 0
0 51 0
0 108 0
83 158 0
0 78 0
0 42 0
175 198 0
0 33 0
0 43 0
0 46 0
0 55 0
173 197 0
0 136 0
0 74 0
0 74 0
181 201 0
140 181 0
0 114 0
0 105 0
64 153 0
0 72 0
0 55 0
119 171 0
0 72 0
0 68 0
0 92 0
98 163 0
0 27 0
0 47 0
53 150 0
0 15 0
0 107 0
0 104 0
0 109 0
30 146 0
0 80 0
0 85 0
0 112 0
0 98 0
0 64 0
0 68 0
0 68 0
0 34 0
0 14 0
0 0 0
0 34 0
0 96 0
153 187 0
0 68 0
88 160 0
0 42 0
0 134 0
0 103 0
0 77 0
174 197 0
0 111 0
0 72 0
0 67 0
0 126 0
0 92 0
0 111 0
0 124 0
0 111 0
0 60 0
0 10 0
0 62 0
0 85 0
0 121 0
0 89 0
139 180 0
0 39 0
0 43 0
0 78 0
0 68 0
0 111 0
0 142 0
0 87 0
189 206 0
150 186 0
0 95 0
0 91 0
139 180 0
0 12 0
0 80 0
117 171 0
0 74 0
0 118 0
73 155 0
0 45 0
0 8 0
134 178 0
0 67 0
0 112 0
45 149 0
0 44 0
0 65 0
0 92 0
0 71 0
0 117 0
0 83 0
0 128 0
0 15 0
0 45 0
0 63 0
0 49 0
185 203 0
0 74 0
0 46 0
0 58 0
0 63 0
0 140 0
0 121 0
0 103 0
0 56 0
0 116 0
0 76 0
0 103 0
0 2 0
180 201 0
0 92 0
0 115 0
0 113 0
36 147 0
170 195 0
109 167 0
73 155 0
60 152 0
0 36 0
0 68 0
0 52 0
0 14 0
0 83 0
0 41 0
0 98 0
0 60 0
0 46 0
0 85 0
0 112 0
0 131 0
12 145 0
0 91 0
0 98 0
63 153 0
142 182 0
0 54 0
0 96 0
0 99 0
66 153 0
0 78 0
0 82 0
0 70 0
0 74 0
190 206 0
0 12 0
0 62 0
0 42 0
0 128 0
137 179 0
0 30 0
0 73 0
0 53 0
151 186 0
0 124 0
110 168 0
47 149 0
0 96 0
0 96 0
0 130 0
152 186 0
0 62 0
0 99 0
0 49 0
94 162 0
0 27 0
0 69 0
0 111 0
114 169 0
196 209 0
0 105 0
0 69 0
0 129 0
21 145 0
61 152 0
0 95 0
0 104 0
0 104 0
171 196 0
0 142 0
0 47 0
0 16 0
0 135 0
0 109 0
0 87 0
118 171 0
120 172 0
0 128 0
0 102 0
0 83 0
48 149 0
164 192 0
0 106 0
114 169 0
0 91 0
0 85 0
0 66 0
0 44 0
0 4 0
0 77 0
0 59 0
0 73 0
0 58 0
0 0 0
0 47 0
176 199 0
79 157 0
0 124 0
0 30 0
0 70 0
0 46 0
0 111 0
0 142 0
0 85 0
0 26 0
135 178 0
159 190 0
0 50 0
0 116 0
0 107 0
0 41 0
0 91 0
155 188 0
0 92 0
97 163 0
92 161 0
154 188 0
0 95 0
0 61 0
0 97 0
0 128 0
0 71 0
0 96 0
0 123 0
0 35 0
107 166 0
0 92 0
0 83 0
0 67 0
0 68 0
161 191 0
151 186 0
64 153 0
0 114 0
60 152 0
125 174 0
0 39 0
0 121 0
0 130 0
183 203 0
126 174 0
0 103 0
0 86 0
25 146 0
0 77 0
0 97 0
184 203 0
41 148 0
0 101 0
0 105 0
0 71 0
0 84 0
0 58 0
0 96 0
0 52 0
0 63 0
0 79 0
0 77 0
0 75 0
0 114 0
0 101 0
144 182 0
128 175 0
0 70 0
0 72 0
0 66 0
0 131 0
0 84 0
0 122 0
0 34 0
38 147 0
0 89 0
0 92 0
0 84 0
0 74 0
186 204 0
0 84 0
0 58 0
0 104 0
0 107 0
0 60 0
0 65 0
0 92 0
0 92 0
133 178 0
0 85 0
0 125 0
0 71 0
0 77 0
0 107 0
0 99 0
0 63 0
58 151 0
0 79 0
0 84 0
168 195 0
0 103 0
0 74 0
0 66 0
0 107 0
0 61 0
171 196 0
0 41 0
0 74 0
119 171 0
0 34 0
0 63 0
0 67 0
0 139 0
21 145 0
0 117 0
51 150 0
0 77 0
0 75 0
0 49 0
0 67 0
0 110 0
0 87 0
0 112 0
141 181 0
0 68 0
0 5 0
103 165 0
0 58 0
85 159 0
0 87 0
0 42 0
0 85 0
97 163 0
0 74 0
0 84 0
174 197 0
0 75 0
0 84 0
0 71 0
169 195 0
0 60 0
0 16 0
0 142 0
0 68 0
0 31 0
159 190 0
0 40 0
0 141 0
55 151 0
0 119 0
130 176 0
183 202 0
0 88 0
0 60 0
160 190 0
0 28 0
194 208 0
195 209 0
0 124 0
0 124 0
0 69 0
65 153 0
139 180 0
0 86 0
0 42 0
0 135 0
0 54 0
0 39 0
0 73 0
102 165 0
123 173 0
178 200 0
95 162 0
0 125 0
163 192 0
0 126 0
0 63 0
0 116 0
0 25 0
0 46 0
0 128 0
143 182 0
0 121 0
0 134 0
162 191 0
129 175 0
0 96 0
0 119 0
167 194 0
0 132 0
0 138 0
0 55 0
0 92 0
0 94 0
0 85 0
153 187 0
82 158 0
0 111 0
0 55 0
0 51 0
0 46 0
17 145 0
0 132 0
0 30 0
0 55 0
0 117 0
0 94 0
0 8 0
174 198 0
0 83 0
0 37 0
0 86 0
0 76 0
0 86 0
0 109 0
0 100 0
0 33 0
0 48 0
0 70 0
0 88 0
0 49 0
0 56 0
0 75 0
189 206 0
130 176 0
0 143 0
163 192 0
0 125 0
0 53 0
0 144 0
0 63 0
98 163 0
180 201 0
0 33 0
0 70 0
68 154 0
0 62 0
184 203 0
0 86 0
0 34 0
0 69 0
0 51 0
0 53 0
0 79 0
111 168 0
0 102 0
0 58 0
0 95 0
0 47 0
0 46 0
0 104 0
127 175 0
0 61 0
0 53 0
0 79 0
0 79 0
0 49 0
193 208 0
0 76 0
0 86 0
0 66 0
0 123 0
65 153 0
0 108 0
65 153 0
0 61 0
107 167 0
136 179 0
0 132 0
0 144 0
0 60 0
0 35 0
0 142 0
139 180 0
0 43 0
0 48 0
0 31 0
0 91 0
174 197 0
0 124 0
0 71 0
0 98 0
0 89 0
125 174 0
0 60 0
142 182 0
0 79 0
133 178 0
0 87 0
0 102 0
0 92 0
0 32 0
0 63 0
0 106 0
0 30 0
0 135 0
0 95 0
64 153 0
0 139 0
0 118 0
118 171 0
189 205 0
0 74 0
0 114 0
0 81 0
151 186 0
0 85 0
0 122 0
0 107 0
0 115 0
151 186 0
81 157 0
0 117 0
0 136 0
34 147 0
0 61 0
0 63 0
0 65 0
61 152 0
0 76 0
49 149 0
0 47 0
0 10 0
0 85 0
0 131 0
0 92 0
0 73 0
0 47 0
0 87 0
0 123 0
0 79 0
52 150 0
0 54 0
178 200 0
0 57 0
0 96 0
0 128 0
166 193 0
0 108 0
0 62 0
0 122 0
0 58 0
0 51 0
0 101 0
0 95 0
0 56 0
0 87 0
0 89 0
162 191 0
0 135 0
0 80 0
0 54 0
0 75 0
0 85 0
0 58 0
58 151 0
113 169 0
134 178 0
70 154 0
0 65 0
0 44 0
0 71 0
124 173 0
0 44 0
0 95 0
0 69 0
0 86 0
0 59 0
0 78 0
0 74 0
0 136 0
0 113 0
187 205 0
0 71 0
126 175 0
84 158 0
0 85 0
68 154 0
195 209 0
0 68 0
0 112 0
62 152 0
0 144 0
0 60 0
0 44 0
176 199 0
0 86 0
0 79 0
0 89 0
0 136 0
0 135 0
0 23 0
0 84 0
0 113 0
154 188 0
118 171 0
0 95 0
0 132 0
0 92 0
167 194 0
0 81 0
173 197 0
124 174 0
0 63 0
22 145 0
0 66 0
0 81 0
0 121 0
0 91 0
0 137 0
0 116 0
0 70 0
0 116 0
195 209 0
146 184 0
146 184 0
0 40 0
102 165 0
0 90 0
173 197 0
0 144 0
133 177 0
163 192 0
0 55 0
125 174 0
0 67 0
0 92 0
0 18 0
0 74 0
119 171 0
0 100 0
0 110 0
0 120 0
0 54 0
74 155 0
0 79 0
0 19 0
0 64 0
0 62 0
168 195 0
67 154 0
0 65 0
106 166 0
0 67 0
0 114 0
83 158 0
0 41 0
48 149 0
0 101 0
0 64 0
0 88 0
0 74 0
0 44 0
0 91 0
0 104 0
0 60 0
