P3
50 28
255
163 200 255
163 200 255
162 199 255
161 199 255
160 198 255
160 198 255
159 197 255
158 197 255
157 196 255
156 196 255
155 195 255
154 195 255
154 194 255
153 194 255
152 193 255
151 193 255
150 192 255
150 192 255
149 191 255
148 191 255
148 191 255
147 190 255
147 190 255
146 190 255
146 190 255
146 190 255
146 190 255
146 190 255
147 190 255
147 190 255
148 191 255
148 191 255
149 191 255
150 192 255
150 192 255
151 193 255
152 193 255
153 194 255
154 194 255
154 195 255
155 195 255
156 196 255
157 196 255
158 197 255
159 197 255
160 198 255
160 198 255
161 199 255
162 199 255
163 200 255
165 201 255
164 201 255
164 200 255
163 200 255
162 199 255
161 199 255
161 199 255
160 198 255
159 198 255
158 197 255
157 197 255
156 196 255
155 195 255
155 195 255
154 194 255
153 194 255
152 193 255
151 193 255
151 193 255
150 192 255
149 192 255
149 192 255
148 191 255
148 191 255
148 191 255
148 191 255
148 191 255
148 191 255
148 191 255
149 192 255
149 192 255
150 192 255
151 193 255
151 193 255
152 193 255
153 194 255
154 194 255
155 195 255
155 195 255
156 196 255
157 197 255
158 197 255
159 198 255
160 198 255
161 199 255
161 199 255
162 199 255
163 200 255
164 200 255
164 201 255
167 202 255
166 202 255
165 201 255
165 201 255
164 201 255
163 200 255
162 200 255
162 199 255
161 199 255
160 198 255
159 198 255
158 197 255
157 197 255
157 196 255
156 196 255
155 195 255
154 195 255
153 194 255
153 194 255
152 193 255
151 193 255
151 193 255
150 192 255
150 192 255
150 192 255
150 192 255
150 192 255
150 192 255
150 192 255
151 193 255
151 193 255
152 193 255
153 194 255
153 194 255
154 195 255
155 195 255
156 196 255
157 196 255
157 197 255
158 197 255
159 198 255
160 198 255
161 199 255
162 199 255
162 200 255
163 200 255
164 201 255
165 201 255
165 201 255
166 202 255
168 203 255
168 203 255
167 203 255
167 202 255
166 202 255
165 201 255
164 201 255
164 200 255
163 200 255
162 199 255
161 199 255
160 198 255
160 198 255
159 197 255
158 197 255
157 196 255
156 196 255
155 195 255
155 195 255
154 195 255
153 194 255
153 194 255
153 194 255
152 194 255
152 193 255
152 193 255
152 193 255
152 194 255
153 194 255
153 194 255
153 194 255
154 195 255
155 195 255
155 195 255
156 196 255
157 196 255
158 197 255
159 197 255
160 198 255
160 198 255
161 199 255
162 199 255
163 200 255
164 200 255
164 201 255
165 201 255
166 202 255
167 202 255
167 203 255
168 203 255
170 204 255
170 204 255
169 204 255
169 203 255
168 203 255
167 203 255
166 202 255
166 202 255
165 201 255
164 201 255
163 200 255
163 200 255
162 199 255
161 199 255
160 198 255
159 198 255
159 197 255
158 197 255
157 196 255
156 196 255
156 196 255
155 195 255
155 195 255
155 195 255
154 195 255
154 195 255
154 195 255
155 195 255
155 195 255
155 195 255
156 196 255
156 196 255
157 196 255
158 197 255
159 197 255
159 198 255
160 198 255
161 199 255
162 199 255
163 200 255
163 200 255
164 201 255
165 201 255
166 202 255
166 202 255
167 203 255
168 203 255
169 203 255
169 204 255
170 204 255
172 206 255
172 205 255
171 205 255
171 205 255
170 204 255
169 204 255
169 203 255
168 203 255
167 203 255
166 202 255
166 202 255
165 201 255
164 201 255
163 200 255
163 200 255
162 199 255
161 199 255
160 198 255
160 198 255
159 198 255
158 197 255
158 197 255
157 197 255
157 196 255
157 196 255
157 196 255
157 196 255
157 196 255
157 197 255
158 197 255
158 197 255
159 198 255
160 198 255
160 198 255
161 199 255
162 199 255
163 200 255
163 200 255
164 201 255
165 201 255
166 202 255
166 202 255
167 203 255
168 203 255
169 203 255
169 204 255
170 204 255
171 205 255
171 205 255
172 205 255
174 207 255
174 206 255
173 206 255
173 206 255
172 205 255
172 205 255
171 205 255
170 204 255
170 204 255
169 204 255
168 203 255
167 203 255
167 202 255
166 202 255
165 201 255
164 201 255
164 200 255
163 200 255
162 200 255
162 199 255
161 199 255
161 199 255
160 198 255
160 198 255
160 198 255
160 198 255
160 198 255
160 198 255
160 198 255
161 199 255
161 199 255
162 199 255
162 200 255
163 200 255
164 200 255
164 201 255
165 201 255
166 202 255
167 202 255
167 203 255
168 203 255
169 204 255
170 204 255
170 204 255
171 205 255
172 205 255
172 205 255
173 206 255
173 206 255
174 206 255
176 208 255
176 208 255
175 207 255
175 207 255
174 207 255
174 206 255
173 206 255
173 206 255
172 205 255
171 205 255
171 205 255
170 204 255
169 204 255
169 203 255
168 203 255
167 203 255
167 202 255
166 202 255
165 201 255
165 201 255
164 201 255
164 200 255
163 200 255
163 200 255
163 200 255
163 200 255
163 200 255
163 200 255
163 200 255
164 200 255
164 201 255
165 201 255
165 201 255
166 202 255
167 202 255
167 203 255
168 203 255
169 203 255
169 204 255
170 204 255
171 205 255
171 205 255
172 205 255
173 206 255
173 206 255
174 206 255
174 207 255
175 207 255
175 207 255
176 208 255
178 209 255
178 209 255
178 209 255
177 208 255
177 208 255
176 208 255
176 208 255
175 207 255
175 207 255
174 207 255
173 206 255
173 206 255
172 206 255
172 205 255
171 205 255
170 204 255
170 204 255
169 204 255
169 203 255
168 203 255
168 203 255
167 202 255
167 202 255
167 202 255
166 202 255
166 202 255
166 202 255
167 202 255
167 202 255
167 202 255
168 203 255
168 203 255
169 203 255
169 204 255
170 204 255
170 204 255
171 205 255
172 205 255
172 206 255
173 206 255
173 206 255
174 207 255
175 207 255
175 207 255
176 208 255
176 208 255
177 208 255
177 208 255
178 209 255
178 209 255
180 210 255
180 210 255
180 210 255
179 210 255
179 210 255
179 209 255
178 209 255
178 209 255
177 209 255
177 208 255
176 208 255
176 208 255
175 207 255
175 207 255
174 207 255
174 206 255
173 206 255
173 206 255
172 205 255
172 205 255
171 205 255
171 205 255
170 204 255
170 204 255
170 204 255
170 204 255
170 204 255
170 204 255
170 204 255
171 205 255
171 205 255
172 205 255
172 205 255
173 206 255
173 206 255
174 206 255
174 207 255
175 207 255
175 207 255
176 208 255
176 208 255
177 208 255
177 209 255
178 209 255
178 209 255
179 209 255
179 210 255
179 210 255
180 210 255
180 210 255
183 212 255
182 212 255
182 211 255
182 211 255
181 211 255
127 226 209
147 227 205
161 230 197
172 233 185
178 238 168
173 247 137
179 209 255
178 209 255
178 209 255
177 209 255
177 208 255
177 208 255
176 208 255
176 208 255
175 207 255
175 207 255
175 207 255
174 207 255
174 207 255
174 207 255
174 207 255
174 207 255
174 207 255
174 207 255
175 207 255
175 207 255
175 207 255
176 208 255
176 208 255
177 208 255
177 208 255
177 209 255
178 209 255
178 209 255
179 209 255
179 210 255
180 210 255
180 210 255
180 210 255
181 211 255
181 211 255
181 211 255
182 211 255
182 211 255
182 212 255
185 213 255
185 213 255
184 213 255
120 196 235
141 196 235
158 197 231
172 198 224
185 200 216
196 202 205
206 205 192
214 209 175
219 213 153
182 211 255
181 211 255
181 211 255
180 210 255
180 210 255
180 210 255
179 210 255
179 210 255
179 209 255
179 209 255
178 209 255
178 209 255
178 209 255
178 209 255
178 209 255
178 209 255
178 209 255
179 209 255
179 209 255
179 210 255
179 210 255
180 210 255
180 210 255
180 210 255
181 211 255
181 211 255
182 211 255
182 211 255
182 212 255
183 212 255
183 212 255
183 212 255
183 212 255
184 212 255
184 213 255
184 213 255
184 213 255
185 213 255
187 214 255
187 214 255
116 171 247
138 171 247
155 172 244
170 172 239
184 173 233
196 175 225
208 176 215
218 178 203
227 180 188
235 182 169
240 186 145
185 213 255
184 213 255
184 213 255
184 213 255
184 212 255
183 212 255
183 212 255
183 212 255
183 212 255
183 212 255
183 212 255
182 212 255
182 212 255
182 212 255
183 212 255
183 212 255
183 212 255
183 212 255
183 212 255
183 212 255
184 212 255
184 213 255
184 213 255
184 213 255
185 213 255
185 213 255
185 213 255
185 213 255
185 213 255
186 214 255
186 214 255
186 214 255
186 214 255
186 214 255
187 214 255
187 214 255
187 214 255
189 216 255
100 149 251
127 149 254
146 149 252
162 149 249
177 150 244
190 150 237
202 151 229
213 151 219
224 152 208
234 153 194
242 154 177
249 156 155
188 215 255
188 215 255
188 215 255
188 215 255
188 215 255
187 215 255
187 215 255
187 215 255
187 214 255
187 214 255
187 214 255
187 214 255
187 214 255
187 214 255
187 214 255
187 214 255
187 214 255
187 215 255
187 215 255
187 215 255
188 215 255
188 215 255
188 215 255
188 215 255
188 215 255
188 215 255
188 215 255
188 215 255
188 215 255
189 215 255
189 215 255
189 215 255
189 216 255
189 216 255
189 216 255
189 216 255
189 216 255
191 217 255
105 127 254
130 127 255
148 127 254
164 127 250
178 127 245
191 127 238
204 127 230
215 127 221
226 127 209
236 127 196
245 127 179
252 127 158
255 127 129
191 217 255
191 217 255
191 217 255
191 217 255
191 217 255
191 217 255
191 217 255
191 217 255
191 217 255
191 217 255
191 217 255
191 217 255
191 217 255
191 217 255
191 217 255
191 217 255
191 217 255
191 217 255
191 217 255
191 217 255
191 217 255
191 217 255
191 217 255
191 217 255
191 217 255
191 217 255
191 217 255
191 217 255
191 217 255
191 217 255
191 217 255
191 217 255
191 217 255
191 217 255
191 217 255
191 217 255
194 218 255
100 106 251
127 106 254
146 106 252
162 106 249
177 105 244
190 105 237
202 104 229
213 104 219
224 103 208
234 102 194
242 101 177
249 99 155
195 219 255
195 219 255
195 219 255
195 219 255
195 219 255
196 220 255
196 220 255
196 220 255
196 220 255
196 220 255
196 220 255
196 220 255
196 220 255
196 220 255
196 220 255
196 220 255
196 220 255
196 220 255
196 220 255
196 220 255
195 219 255
195 219 255
195 219 255
195 219 255
195 219 255
195 219 255
195 219 255
195 219 255
195 219 255
194 219 255
194 219 255
194 219 255
194 219 255
194 219 255
194 219 255
194 219 255
194 218 255
196 220 255
196 220 255
116 84 247
138 84 247
155 83 244
170 83 239
184 82 233
196 80 225
208 79 215
218 77 203
227 75 188
235 73 169
240 69 145
198 221 255
199 221 255
199 222 255
199 222 255
199 222 255
200 222 255
200 222 255
200 222 255
200 222 255
200 222 255
200 222 255
201 223 255
201 223 255
201 223 255
200 222 255
200 222 255
200 222 255
200 222 255
200 222 255
200 222 255
199 222 255
199 222 255
199 222 255
199 221 255
198 221 255
198 221 255
198 221 255
198 221 255
198 221 255
197 221 255
197 220 255
197 220 255
197 220 255
197 220 255
196 220 255
196 220 255
196 220 255
198 221 255
198 221 255
199 221 255
120 59 235
141 59 235
158 58 231
172 57 224
185 55 216
196 53 205
206 50 192
214 46 175
219 42 153
201 223 255
202 223 255
202 223 255
203 224 255
203 224 255
203 224 255
204 224 255
204 225 255
204 225 255
204 225 255
205 225 255
205 225 255
205 225 255
205 225 255
205 225 255
205 225 255
205 225 255
204 225 255
204 225 255
204 225 255
204 224 255
203 224 255
203 224 255
203 224 255
202 223 255
202 223 255
201 223 255
201 223 255
201 223 255
200 222 255
200 222 255
200 222 255
200 222 255
199 222 255
199 222 255
199 222 255
199 221 255
198 221 255
200 222 255
201 223 255
201 223 255
201 223 255
202 223 255
127 29 209
147 28 205
161 25 197
172 22 185
178 17 168
173 8 137
204 225 255
205 225 255
205 225 255
206 226 255
206 226 255
206 226 255
207 226 255
207 227 255
208 227 255
208 227 255
208 227 255
209 227 255
209 228 255
209 228 255
209 228 255
209 228 255
209 228 255
209 227 255
208 227 255
208 227 255
208 227 255
207 227 255
207 226 255
206 226 255
206 226 255
206 226 255
205 225 255
205 225 255
204 225 255
204 224 255
203 224 255
203 224 255
203 224 255
202 224 255
202 223 255
202 223 255
201 223 255
201 223 255
201 223 255
203 224 255
203 224 255
203 224 255
204 224 255
204 225 255
204 225 255
205 225 255
205 225 255
206 226 255
206 226 255
207 226 255
207 227 255
208 227 255
208 227 255
209 227 255
209 228 255
210 228 255
210 228 255
211 229 255
211 229 255
212 229 255
212 230 255
213 230 255
213 230 255
213 230 255
213 230 255
213 230 255
213 230 255
213 230 255
212 230 255
212 229 255
211 229 255
211 229 255
210 228 255
210 228 255
209 228 255
209 227 255
208 227 255
208 227 255
207 227 255
207 226 255
206 226 255
206 226 255
205 225 255
205 225 255
204 225 255
204 225 255
204 224 255
203 224 255
203 224 255
205 225 255
205 225 255
205 225 255
206 226 255
206 226 255
207 226 255
207 227 255
208 227 255
208 227 255
209 228 255
210 228 255
210 228 255
211 229 255
211 229 255
212 229 255
213 230 255
213 230 255
214 231 255
214 231 255
215 231 255
215 231 255
216 232 255
216 232 255
216 232 255
217 232 255
217 232 255
217 232 255
216 232 255
216 232 255
216 232 255
215 231 255
215 231 255
214 231 255
214 231 255
213 230 255
213 230 255
212 229 255
211 229 255
211 229 255
210 228 255
210 228 255
209 228 255
208 227 255
208 227 255
207 227 255
207 226 255
206 226 255
206 226 255
205 225 255
205 225 255
207 226 255
207 227 255
208 227 255
208 227 255
209 227 255
209 228 255
210 228 255
210 228 255
211 229 255
212 229 255
212 230 255
213 230 255
214 230 255
214 231 255
215 231 255
216 232 255
216 232 255
217 232 255
218 233 255
218 233 255
219 233 255
219 234 255
220 234 255
220 234 255
220 234 255
220 234 255
220 234 255
220 234 255
220 234 255
219 234 255
219 233 255
218 233 255
218 233 255
217 232 255
216 232 255
216 232 255
215 231 255
214 231 255
214 230 255
213 230 255
212 230 255
212 229 255
211 229 255
210 228 255
210 228 255
209 228 255
209 227 255
208 227 255
208 227 255
207 227 255
209 227 255
209 228 255
210 228 255
210 228 255
211 229 255
211 229 255
212 229 255
213 230 255
213 230 255
214 231 255
215 231 255
216 232 255
216 232 255
217 232 255
218 233 255
219 233 255
219 234 255
220 234 255
221 235 255
221 235 255
222 235 255
222 236 255
223 236 255
223 236 255
223 236 255
223 236 255
223 236 255
223 236 255
223 236 255
222 236 255
222 235 255
221 235 255
221 235 255
220 234 255
219 234 255
219 233 255
218 233 255
217 232 255
216 232 255
216 232 255
215 231 255
214 231 255
213 230 255
213 230 255
212 229 255
211 229 255
211 229 255
210 228 255
210 228 255
209 228 255
211 229 255
211 229 255
212 229 255
212 230 255
213 230 255
214 230 255
214 231 255
215 231 255
216 232 255
217 232 255
217 233 255
218 233 255
219 233 255
220 234 255
220 234 255
221 235 255
222 235 255
223 236 255
223 236 255
224 237 255
225 237 255
225 237 255
226 238 255
226 238 255
226 238 255
226 238 255
226 238 255
226 238 255
226 238 255
225 237 255
225 237 255
224 237 255
223 236 255
223 236 255
222 235 255
221 235 255
220 234 255
220 234 255
219 233 255
218 233 255
217 233 255
217 232 255
216 232 255
215 231 255
214 231 255
214 230 255
213 230 255
212 230 255
212 229 255
211 229 255
213 230 255
213 230 255
214 231 255
214 231 255
215 231 255
216 232 255
217 232 255
217 233 255
218 233 255
219 233 255
220 234 255
220 234 255
221 235 255
222 235 255
223 236 255
224 236 255
224 237 255
225 237 255
226 238 255
227 238 255
227 239 255
228 239 255
228 239 255
228 239 255
229 239 255
229 239 255
229 239 255
228 239 255
228 239 255
228 239 255
227 239 255
227 238 255
226 238 255
225 237 255
224 237 255
224 236 255
223 236 255
222 235 255
221 235 255
220 234 255
220 234 255
219 233 255
218 233 255
217 233 255
217 232 255
216 232 255
215 231 255
214 231 255
214 231 255
213 230 255
215 231 255
215 231 255
216 232 255
216 232 255
217 232 255
218 233 255
219 233 255
219 234 255
220 234 255
221 235 255
222 235 255
223 236 255
223 236 255
224 237 255
225 237 255
226 238 255
227 238 255
228 239 255
228 239 255
229 240 255
230 240 255
230 240 255
230 240 255
231 241 255
231 241 255
231 241 255
231 241 255
231 241 255
230 240 255
230 240 255
230 240 255
229 240 255
228 239 255
228 239 255
227 238 255
226 238 255
225 237 255
224 237 255
223 236 255
223 236 255
222 235 255
221 235 255
220 234 255
219 234 255
219 233 255
218 233 255
217 232 255
216 232 255
216 232 255
215 231 255
216 232 255
217 232 255
218 233 255
218 233 255
219 234 255
220 234 255
221 235 255
221 235 255
222 236 255
223 236 255
224 237 255
225 237 255
226 238 255
226 238 255
227 239 255
228 239 255
229 240 255
230 240 255
230 240 255
231 241 255
232 241 255
232 242 255
233 242 255
233 242 255
233 242 255
233 242 255
233 242 255
233 242 255
233 242 255
232 242 255
232 241 255
231 241 255
230 240 255
230 240 255
229 240 255
228 239 255
227 239 255
226 238 255
226 238 255
225 237 255
224 237 255
223 236 255
222 236 255
221 235 255
221 235 255
220 234 255
219 234 255
218 233 255
218 233 255
217 232 255
218 233 255
219 233 255
219 234 255
220 234 255
221 235 255
222 235 255
222 236 255
223 236 255
224 237 255
225 237 255
226 238 255
227 238 255
228 239 255
228 239 255
229 240 255
230 240 255
231 241 255
232 241 255
232 242 255
233 242 255
234 242 255
234 243 255
235 243 255
235 243 255
235 243 255
235 243 255
235 243 255
235 243 255
235 243 255
234 243 255
234 242 255
233 242 255
232 242 255
232 241 255
231 241 255
230 240 255
229 240 255
228 239 255
228 239 255
227 238 255
226 238 255
225 237 255
224 237 255
223 236 255
222 236 255
222 235 255
221 235 255
220 234 255
219 234 255
219 233 255
